<?xml version="1.0" standalone="no"?><!DOCTYPE svg PUBLIC "-//W3C//DTD SVG 1.1//EN" "http://www.w3.org/Graphics/SVG/1.1/DTD/svg11.dtd"><svg t="1567999640623" class="icon" viewBox="0 0 1024 1024" version="1.1" xmlns="http://www.w3.org/2000/svg" p-id="12222" xmlns:xlink="http://www.w3.org/1999/xlink" width="64" height="64"><defs><style type="text/css"></style></defs><path d="M810.666667 213.333333h-106.666667V149.333333c0-12.8-8.533333-21.333333-21.333333-21.333333s-21.333333 8.533333-21.333334 21.333333v64H362.666667V149.333333c0-12.8-8.533333-21.333333-21.333334-21.333333s-21.333333 8.533333-21.333333 21.333333v64h-106.666667c-36.266667 0-64 27.733333-64 64v554.666667c0 36.266667 27.733333 64 64 64h597.333334c36.266667 0 64-27.733333 64-64V277.333333c0-36.266667-27.733333-64-64-64z m-597.333334 42.666667h106.666667v42.666667c0 12.8 8.533333 21.333333 21.333333 21.333333s21.333333-8.533333 21.333334-21.333333v-42.666667h298.666666v42.666667c0 12.8 8.533333 21.333333 21.333334 21.333333s21.333333-8.533333 21.333333-21.333333v-42.666667h106.666667c12.8 0 21.333333 8.533333 21.333333 21.333333v128H192v-128c0-12.8 8.533333-21.333333 21.333333-21.333333z m597.333334 597.333333H213.333333c-12.8 0-21.333333-8.533333-21.333333-21.333333V448h640v384c0 12.8-8.533333 21.333333-21.333333 21.333333z" p-id="12223" fill="#31c27c"></path><path d="M576 704H320c-12.8 0-21.333333 8.533333-21.333333 21.333333s8.533333 21.333333 21.333333 21.333334h256c12.8 0 21.333333-8.533333 21.333333-21.333334s-8.533333-21.333333-21.333333-21.333333zM704 554.666667H320c-12.8 0-21.333333 8.533333-21.333333 21.333333s8.533333 21.333333 21.333333 21.333333h384c12.8 0 21.333333-8.533333 21.333333-21.333333s-8.533333-21.333333-21.333333-21.333333z" p-id="12224" fill="#31c27c"></path></svg>