<svg t="1621951585419" class="icon" viewBox="0 0 1024 1024" version="1.1" xmlns="http://www.w3.org/2000/svg" p-id="2942" width="48" height="48"><path d="M902.4 588.8H787.2c-25.6 0-51.2 12.8-70.4 25.6-19.2-19.2-44.8-25.6-76.8-25.6H518.4c-25.6 0-44.8 25.6-44.8 51.2v313.6c0 25.6 19.2 44.8 44.8 44.8h128c19.2 19.2 38.4 25.6 64 25.6s44.8-6.4 64-25.6h128c19.2 0 51.2-19.2 51.2-44.8V640c0-25.6-32-51.2-51.2-51.2zM524.8 640h108.8c44.8 0 51.2 19.2 51.2 38.4v160c0 12.8 12.8 25.6 25.6 25.6s25.6-12.8 25.6-25.6v-160c0-6.4 0-12.8 6.4-19.2 12.8-12.8 32-19.2 38.4-19.2H896v300.8H768c-12.8 0-25.6 6.4-32 12.8-6.4 6.4-19.2 12.8-25.6 12.8-12.8 0-19.2-6.4-25.6-12.8-6.4-6.4-19.2-12.8-32-12.8H531.2L524.8 640zM806.4 224zM83.2 473.6v-6.4h-6.4l6.4 12.8h6.4l-6.4-6.4z" p-id="2943" fill="#31c27c"></path><path d="M652.8 550.4c19.2-6.4 32-6.4 44.8-6.4h57.6L736 531.2c-32-19.2-64-38.4-96-51.2 6.4 0 6.4-6.4 12.8-6.4 12.8-6.4 19.2-19.2 32-25.6 51.2-51.2 76.8-115.2 76.8-185.6 0-70.4-25.6-134.4-76.8-185.6C633.6 25.6 569.6 0 499.2 0h-6.4c-70.4 0-134.4 25.6-179.2 76.8-51.2 51.2-76.8 115.2-76.8 185.6 0 70.4 25.6 134.4 76.8 185.6 6.4 6.4 19.2 12.8 32 19.2 6.4 6.4 6.4 6.4 12.8 6.4-51.2 25.6-96 51.2-134.4 83.2L204.8 576c-25.6 25.6-51.2 57.6-70.4 89.6 0 6.4-6.4 12.8-6.4 19.2-19.2 38.4-32 83.2-38.4 128 0 19.2 12.8 32 25.6 38.4H128c12.8 0 25.6-12.8 25.6-25.6 12.8-76.8 44.8-147.2 102.4-204.8C320 550.4 409.6 512 499.2 512c51.2 0 102.4 12.8 153.6 38.4z m-160-96c-89.6 0-172.8-64-192-153.6-6.4-12.8-6.4-25.6-6.4-38.4 0-12.8 0-32 6.4-44.8C326.4 128 409.6 64 492.8 64c89.6 0 172.8 64 198.4 160 6.4 12.8 6.4 32 6.4 44.8 0 12.8 0 32-6.4 44.8-19.2 76.8-102.4 140.8-198.4 140.8l6.4 6.4-6.4-6.4z" p-id="2944" fill="#31c27c"></path></svg>