<svg t="1621952493773" class="icon" viewBox="0 0 1024 1024" version="1.1" xmlns="http://www.w3.org/2000/svg" p-id="4741" width="48" height="48"><path d="M914.691674 425.709877v-28.76201c0-47.583643-38.705456-86.288076-86.290123-86.288076-10.168573 0-19.719071 2.077307-28.764056 5.308902v-34.072958c0-47.58262-38.704433-86.289099-86.288077-86.2891-47.58262 0-86.288076 38.70648-86.288076 86.2891v143.815166H396.939681v-143.815166c0-47.610249-36.543215-85.334357-83.900708-86.260447l-0.870831-0.028653h-0.310061v0.028653c-48.284606 0.617052-87.496598 39.26725-87.496599 86.260447v34.072958c-9.044985-3.230571-18.624136-5.308902-28.764056-5.308902-47.583643 0-86.288076 38.704433-86.288076 86.288076v28.76201c-47.583643 0-86.289099 38.707503-86.2891 86.290123S61.725707 598.290123 109.30935 598.290123v28.763033c0 47.58262 38.704433 86.290123 86.288076 86.290123 10.139921 0 19.720094-2.079354 28.764056-5.308902v34.070911c0 47.583643 39.238598 86.290123 87.496599 86.290123h1.179869c47.048455 0 83.900708-37.890906 83.900708-86.290123v-143.815165h230.120638v143.815165c0 47.583643 38.705456 86.290123 86.288076 86.290123 47.583643 0 86.288076-38.70648 86.288076-86.290123V708.034377c9.046009 3.229548 18.596506 5.308902 28.764056 5.308902 47.584666 0 86.290123-38.707503 86.290123-86.290123v-28.763033c47.58262 0 86.288076-38.70648 86.288076-86.2891s-38.70341-86.291146-86.286029-86.291146zM80.543247 512c0-15.871447 12.893632-28.76201 28.765079-28.76201v57.526066c-15.871447 0-28.76508-12.921262-28.765079-28.764056z m115.054179 143.816189c-15.869401 0-28.760987-12.893632-28.760987-28.763033V396.947867c0-15.842795 12.892609-28.763033 28.760987-28.763033 15.871447 0 28.764056 12.920238 28.764056 28.763033v230.105289c0 15.870424-12.892609 28.763033-28.764056 28.763033z m143.815165 86.289099c0 16.685998-11.095687 28.763033-26.373618 28.763034h-1.179869c-16.236767 0-29.972579-13.174018-29.972579-28.763034v-460.210576c0-15.139785 14.410169-28.594188 30.28264-28.763034 15.281001 0.168845 27.24445 12.780046 27.24445 28.763034v460.210576h-0.001024z m57.52709-201.341232v-57.526066h230.120638v57.526066H396.939681z m345.173794 201.341232c0 15.870424-12.923308 28.763033-28.76508 28.763034-15.89703 0-28.760987-12.893632-28.760986-28.763034v-460.210576c0-15.841772 12.863957-28.763033 28.760986-28.763034 15.841772 0 28.76508 12.921262 28.76508 28.763034v460.210576z m115.051109-115.052132c0 15.870424-12.920238 28.763033-28.763033 28.763033-15.89703 0-28.764056-12.893632-28.764056-28.763033V396.947867c0-15.842795 12.867026-28.763033 28.764056-28.763033 15.842795 0 28.763033 12.920238 28.763033 28.763033v230.105289z m57.52709-86.2891v-57.526066c15.841772 0 28.763033 12.891586 28.763033 28.76201 0 15.842795-12.921262 28.764056-28.763033 28.764056z" p-id="4742" fill="#31c27c"></path></svg>