<?xml version="1.0" standalone="no"?><!DOCTYPE svg PUBLIC "-//W3C//DTD SVG 1.1//EN" "http://www.w3.org/Graphics/SVG/1.1/DTD/svg11.dtd"><svg t="1568004926045" class="icon" viewBox="0 0 1024 1024" version="1.1" xmlns="http://www.w3.org/2000/svg" p-id="23470" xmlns:xlink="http://www.w3.org/1999/xlink" width="64" height="64"><defs><style type="text/css"></style></defs><path d="M434.7 533.1c25.1-19.7 41.2-50.2 41.2-84.6 0-59.4-48.2-107.6-107.6-107.6S260.7 389 260.7 448.5c0 34.4 16.2 64.9 41.2 84.6-66.2 26.4-113 91-113 166.6h53.8c0-69.4 56.2-125.6 125.6-125.6 69.4 0 125.6 56.2 125.6 125.6h53.8c0-75.7-46.8-140.2-113-166.6z m-66.4-30.8c-29.7 0-53.8-24.1-53.8-53.8s24.1-53.8 53.8-53.8 53.8 24.1 53.8 53.8-24.1 53.8-53.8 53.8z m439.6 0H628.5c-14.9 0-26.9 12-26.9 26.9 0 14.9 12 26.9 26.9 26.9h179.4c14.9 0 26.9-12 26.9-26.9 0-14.9-12.1-26.9-26.9-26.9z m0-125.6H628.5c-14.9 0-26.9 12-26.9 26.9 0 14.9 12 26.9 26.9 26.9h179.4c14.9 0 26.9-12 26.9-26.9 0-14.9-12.1-26.9-26.9-26.9z m80.7-215.3H135.1c-39.6 0-71.8 32.1-71.8 71.8v574.1c0 39.6 32.1 71.8 71.8 71.8h753.5c39.6 0 71.8-32.1 71.8-71.8V233.2c0-39.7-32.2-71.8-71.8-71.8z m17.9 627.9c0 19.8-16.1 35.9-35.9 35.9H153c-19.8 0-35.9-16.1-35.9-35.9V251.1c0-19.8 16.1-35.9 35.9-35.9h717.6c19.8 0 35.9 16.1 35.9 35.9v538.2zM736.1 627.9H628.5c-14.9 0-26.9 12-26.9 26.9 0 14.9 12 26.9 26.9 26.9h107.6c14.9 0 26.9-12 26.9-26.9 0-14.9-12-26.9-26.9-26.9z" fill="#31c27c" p-id="23471"></path></svg>