<?xml version="1.0" standalone="no"?><!DOCTYPE svg PUBLIC "-//W3C//DTD SVG 1.1//EN" "http://www.w3.org/Graphics/SVG/1.1/DTD/svg11.dtd"><svg t="1538477893525" class="icon" style="" viewBox="0 0 1037 1024" version="1.1" xmlns="http://www.w3.org/2000/svg" p-id="44248" xmlns:xlink="http://www.w3.org/1999/xlink" width="32.40625" height="32"><defs><style type="text/css"></style></defs><path d="M485.012182 1020.801817A47.972743 47.972743 0 0 0 533.033383 972.247587V51.752413c0-26.845353-21.854249-48.602688-48.021201-48.602687H338.768003A48.069657 48.069657 0 0 0 290.746803 51.752413v920.446716a48.457316 48.457316 0 0 0 48.0212 48.554231h146.244179zM339.107204 51.849328c0-0.387659 145.468862-0.096915 145.468863-0.096915-0.436116 0-0.339201 920.495173-0.339202 920.495174 0 0.387659-145.468862 0.096915-145.468862 0.096914 0.387659 0 0.339201-920.495173 0.339201-920.495173zM860.604838 1022.400909l141.301533-37.845164a48.069657 48.069657 0 0 0 33.823207-59.360212L797.464956 36.1007A48.505773 48.505773 0 0 0 738.492402 1.599091l-141.301533 37.845164a48.069657 48.069657 0 0 0-33.823207 59.360212l238.216165 889.094833c7.026311 25.924664 33.726292 41.237176 59.021011 34.501609zM750.655188 48.602688c-0.387659 0.096915 237.925421 889.191747 237.925422 889.191747 0.096915 0.387659-140.477759 37.748249-140.477759 37.748249 0.387659-0.096915-237.925421-889.191747-237.925422-889.191747-0.145372-0.339201 140.477759-37.748249 140.477759-37.748249zM194.268287 1020.801817c26.506152 0 48.0212-21.321219 48.0212-48.602688V51.752413C242.289487 24.90706 220.435238 3.149726 194.268287 3.149726H48.024108A48.069657 48.069657 0 0 0 0.002907 51.752413v920.446716a48.457316 48.457316 0 0 0 48.021201 48.554231h146.244179zM48.363309 51.849328C48.363309 51.46167 193.832171 51.752413 193.832171 51.752413c-0.436116 0-0.339201 920.495173-0.339201 920.495174 0 0.387659-145.468862 0.096915-145.468862 0.096914 0.387659 0 0.339201-920.495173 0.339201-920.495173z" p-id="44249" fill="#B3EE3A"></path></svg>