<svg t="1621951661493" class="icon" viewBox="0 0 1024 1024" version="1.1" xmlns="http://www.w3.org/2000/svg" p-id="3773" width="48" height="48"><path d="M540.3648 400.5376L512 343.04l-28.3648 57.4976a45.9776 45.9776 0 0 1-34.7136 25.1904l-63.4368 9.216 45.9264 44.7488a46.1568 46.1568 0 0 1 13.2608 40.8064L433.8176 583.68l56.7296-29.8496a45.99296 45.99296 0 0 1 21.4528-5.2736c7.3728 0 14.7456 1.7408 21.4528 5.2736l56.7296 29.8496-10.8544-63.1808c-2.56-14.9504 2.4064-30.208 13.2608-40.8064l45.8752-44.7488-63.4368-9.216a46.21824 46.21824 0 0 1-34.6624-25.1904z" fill="#9FC6FF" p-id="3774"></path><path d="M829.7472 118.4256H198.3488c-28.2112 0-51.2 22.9888-51.2 51.2v707.5328c0 17.152 8.4992 33.0752 22.784 42.5984 14.2848 9.5232 32.256 11.264 48.0768 4.6592l290.0992-120.7808c2.5088-1.024 5.3248-1.024 7.8336 0l294.3488 121.088c6.2976 2.56 12.9024 3.84 19.5072 3.84 9.984 0 19.9168-2.9184 28.4672-8.6528a51.07712 51.07712 0 0 0 22.6816-42.5472V169.6256c0-28.2624-22.9376-51.2-51.2-51.2zM681.6768 464.384l-51.4048 50.1248 12.1344 70.7584c2.9696 17.408-4.0448 34.7136-18.3296 45.056-14.2848 10.3936-32.8704 11.7248-48.5376 3.4816L512 600.4224l-63.5392 33.3824c-6.8096 3.584-14.1824 5.3248-21.504 5.3248-9.5232 0-18.944-2.9696-27.0336-8.8576a45.83424 45.83424 0 0 1-18.3296-45.056l12.1344-70.7584-51.4048-50.0736c-12.6464-12.3392-17.1008-30.4128-11.6736-47.2576a45.89056 45.89056 0 0 1 37.2224-31.3856l71.0656-10.3424 31.744-64.3584c7.8336-15.8208 23.6544-25.7024 41.3184-25.7024a45.7728 45.7728 0 0 1 41.3184 25.7024l31.744 64.3584 71.0656 10.3424c17.5104 2.56 31.744 14.5408 37.2224 31.3856a45.9264 45.9264 0 0 1-11.6736 47.2576z" fill="#31c27c" p-id="3775"></path></svg>