<?xml version="1.0" standalone="no"?><!DOCTYPE svg PUBLIC "-//W3C//DTD SVG 1.1//EN" "http://www.w3.org/Graphics/SVG/1.1/DTD/svg11.dtd"><svg t="1538476876147" class="icon" style="" viewBox="0 0 1024 1024" version="1.1" xmlns="http://www.w3.org/2000/svg" p-id="26202" xmlns:xlink="http://www.w3.org/1999/xlink" width="32" height="32"><defs><style type="text/css"></style></defs><path d="M676.8 512.128c0 0.003 0 0.006 0 0.008 0 9.137-3.829 17.37900001-9.97 23.20999999l-265.614 251.27700001c-5.72 5.415-13.464 8.743-21.984 8.744-17.678 0-32.008-14.33-32.008-32.008 0-9.15700001 3.84499999-17.416 10.00900001-23.25l241.10299999-228.04500001-241.088-228.22399999c-6.165-5.855-10.001-14.113-10.001-23.266 0-8.516 3.32-16.256 8.736-21.998 12.145-12.784 32.434-13.36 45.233-1.264l265.6 251.52c6.155 5.844 9.984 14.086 9.984 23.223 0 0.025 0 0.05100001 0 0.076z" p-id="26203" fill="#8a8a8a"></path></svg>