<?xml version="1.0" standalone="no"?><!DOCTYPE svg PUBLIC "-//W3C//DTD SVG 1.1//EN" "http://www.w3.org/Graphics/SVG/1.1/DTD/svg11.dtd"><svg t="1568004646651" class="icon" viewBox="0 0 1024 1024" version="1.1" xmlns="http://www.w3.org/2000/svg" p-id="16730" xmlns:xlink="http://www.w3.org/1999/xlink" width="64" height="64"><defs><style type="text/css"></style></defs><path d="M338.2 511.4c-17.7 0-32 14.3-32 32s14.3 32 32 32 32-14.3 32-32-14.4-32-32-32zM636.5 511.4H448.2c-17.7 0-32 14.3-32 32s14.3 32 32 32h188.3c17.7 0 32-14.3 32-32s-14.4-32-32-32zM338.2 639.2c-17.7 0-32 14.3-32 32s14.3 32 32 32 32-14.3 32-32c0-17.6-14.4-32-32-32zM338.2 767.6c-17.7 0-32 14.3-32 32s14.3 32 32 32 32-14.3 32-32-14.4-32-32-32zM388.6 242H355c-1.9 0-4.5 1.3-4.8 3.2L321 418.7c-0.6 3.7 2.2 7 5.9 7h30.7c1.9 0 3.6-1.4 3.9-3.3l31-175.7c0.5-2.5-1.4-4.7-3.9-4.7zM488.6 414c11.5-9.2 18.7-20.3 22-39.4l14.2-80.3c3.4-19.1 0.1-30.2-8.1-39.4-8.2-9.5-21.8-14.2-36.6-14.2s-30.1 4.6-41.6 14.2c-11.5 9.2-18.7 20.3-22 39.4l-14.2 80.3c-3.4 19.1-0.1 30.2 8.1 39.4 8.2 9.5 21.8 14.2 36.6 14.2s30-4.6 41.6-14.2z m-45.4-37.8l14.7-83.4c1.8-10.2 8.2-15.1 15.6-15.1s12.1 4.9 10.3 15.1l-14.7 83.4c-1.8 10.2-8.2 15.1-15.6 15.1s-12-5-10.3-15.1zM576.9 428.2c14.8 0 30.1-4.6 41.6-14.2 11.5-9.2 18.7-20.3 22-39.4l14.2-80.3c3.4-19.1 0.1-30.2-8.1-39.4-8.2-9.5-21.8-14.2-36.6-14.2s-30.1 4.6-41.6 14.2c-11.5 9.2-18.7 20.3-22 39.4l-14.2 80.3c-3.4 19.1-0.1 30.2 8.1 39.4 8.1 9.6 21.8 14.2 36.6 14.2z m-3.8-52l14.7-83.4c1.8-10.2 8.2-15.1 15.6-15.1s12.1 4.9 10.3 15.1L599 376.2c-1.8 10.2-8.2 15.1-15.6 15.1s-12.1-5-10.3-15.1zM824.4 767.6h-56c-3.3 0-6-2.7-6-6v-36c0-17.7-14.3-32-32-32s-32 14.3-32 32v58c0 26.5 21.5 48 48 48h78c17.7 0 32-14.3 32-32 0-17.6-14.3-32-32-32zM644.8 396.4l-0.3 0.2-0.2 0.3c-0.6 1.1-0.7 2-0.3 2.8 0.5 0.8 1.3 1.2 2.6 1.2h0.4l0.3-0.2c1.4-0.8 2.7-1.7 4-2.6 0.2 0.4 0.6 0.9 1.3 1.2l0.3 0.2h6.5c-1 8.7-5.6 14.7-13.8 18.3l-0.4 0.2-0.2 0.4c-0.6 1.1-0.7 2-0.3 2.8 0.5 0.8 1.3 1.2 2.6 1.2h0.3l0.3-0.1c10-4.1 15.6-11.7 16.7-22.9h12c0.4 0 0.5 0.1 0.5 0.1s0.1 0.2 0.1 0.5c0 3.5-0.4 8.2-1 13.9-0.4 2.7-1.6 3.2-2.5 3.3-2.1 0-4.9-0.7-8.2-2l-0.4-0.2-0.4 0.1c-1.3 0.3-1.9 1-2.1 1.5-0.4 0.8-0.2 1.8 0.4 2.9l0.3 0.4 0.5 0.2c3.7 1.5 7.2 2.2 10.4 2.2h0.2c2.6-0.2 6-1.7 7-7.6 0.7-4.5 1.1-9.6 1.1-15.1 0-0.4 0-0.7-0.1-1.1 0.9 0.7 1.8 1.4 2.7 2l0.3 0.2c0.5 0.2 1 0.3 1.4 0.3 0.6 0 1.1-0.2 1.6-0.5 0.7-0.6 1-1.5 0.8-2.8l-0.1-0.6-0.5-0.4c-5.7-4.1-10.9-10.1-15.5-17.9l-0.2-0.3-0.3-0.2c-1.1-0.6-2-0.8-2.9-0.4-0.5 0.2-1.2 0.8-1.5 2.1l-0.1 0.5 0.3 0.5c2.9 5.3 6 9.8 9.4 13.4-0.2 0-0.4-0.1-0.7-0.1h-21.4c3.4-3.5 6.1-7.8 7.9-12.8l0.1-0.4-0.1-0.4c-0.2-1.2-0.8-2-1.6-2.4-0.9-0.3-1.9-0.1-2.9 0.7l-0.3 0.3-0.1 0.4c-2.7 7-7.4 12.6-13.9 16.7z" p-id="16731" fill="#31c27c"></path><path d="M864.3 591l-1.5-503.2c0-13.2-10.7-23.9-23.9-23.9l-650.7-1.4c-15.5 0-28 12.5-28 28V931c0 15.5 12.5 28 28 28h431.5c36 25.4 79.9 40.4 127.4 40.4 122.1 0 221-98.9 221-221-0.1-79-41.5-148.3-103.8-187.4zM448.2 703.2h90.9c-7.3 20.2-11.8 41.8-12.8 64.3h-78.1c-17.7 0-32 14.3-32 32s14.3 32 32 32h84.3c5.6 22.7 14.8 44.1 26.8 63.4H236.1c-6.6 0-12-5.4-12-12V138.5c0-6.6 5.4-12 12-12l550.7 1.3c6.6 0 11.9 5.4 12 12 0.5 139.9 1.4 424 1.4 424-17.1-4.2-34.9-6.5-53.3-6.5-69.3 0-131.2 31.9-171.7 81.9h-127c-17.7 0-32 14.3-32 32s14.3 32 32 32z m411 185c-29.4 30-68.7 46.7-110.6 47.2-41.5 0.4-81.8-15.7-111.5-44.8-30-29.4-46.7-68.7-47.2-110.6-0.4-41.5 15.7-81.8 44.8-111.5 29.4-30 68.7-46.7 110.6-47.2 41.5-0.4 81.8 15.7 111.5 44.8 30 29.4 46.7 68.7 47.2 110.6 0.4 41.5-15.7 81.8-44.8 111.5z" p-id="16732" fill="#31c27c"></path></svg>