<?xml version="1.0" standalone="no"?><!DOCTYPE svg PUBLIC "-//W3C//DTD SVG 1.1//EN" "http://www.w3.org/Graphics/SVG/1.1/DTD/svg11.dtd"><svg t="1538476957872" class="icon" style="" viewBox="0 0 1024 1024" version="1.1" xmlns="http://www.w3.org/2000/svg" p-id="27779" xmlns:xlink="http://www.w3.org/1999/xlink" width="32" height="32"><defs><style type="text/css"></style></defs><path d="M497.28 802.944V192.192S414.272 122.24 296.576 122.24c-117.76 0-200.768 62.208-200.768 62.208v618.496s83.008-60.288 200.768-60.288c117.696 0 200.704 60.288 200.704 60.288z m432.448 0V192.192S846.72 122.24 728.896 122.24c-117.696 0-200.768 62.208-200.768 62.208v618.496s83.008-60.288 200.768-60.288c117.824 0 200.832 60.288 200.832 60.288z m61.76-556.16h-30.848v591.232H589.952v31.104H435.584v-31.104H64.96V246.784H34.048v622.336h370.688v31.104h218.112l-1.92-31.104h370.624V246.784h-0.064z" fill="#EEAEEE" p-id="27780"></path></svg>