<?xml version="1.0" standalone="no"?><!DOCTYPE svg PUBLIC "-//W3C//DTD SVG 1.1//EN" "http://www.w3.org/Graphics/SVG/1.1/DTD/svg11.dtd"><svg t="1567999533240" class="icon" viewBox="0 0 1024 1024" version="1.1" xmlns="http://www.w3.org/2000/svg" p-id="9352" xmlns:xlink="http://www.w3.org/1999/xlink" width="64" height="64"><defs><style type="text/css"></style></defs><path d="M256 395.636364a186.181818 186.181818 0 0 1 207.802182-184.971637c80.733091 9.122909 148.154182 72.238545 161.768727 152.366546a185.972364 185.972364 0 0 1-83.293091 189.393454c103.307636 36.026182 181.154909 125.952 199.307637 236.078546A22.341818 22.341818 0 0 1 719.685818 814.545455h-2.257454c-11.101091 0-20.061091-8.308364-21.922909-19.269819C675.165091 674.141091 569.553455 581.818182 442.181818 581.818182S209.198545 674.141091 188.834909 795.275636c-1.838545 10.961455-10.798545 19.269818-21.899636 19.269819h-2.257455a22.341818 22.341818 0 0 1-21.922909-26.042182c18.176-110.126545 96.023273-200.029091 199.330909-236.078546A185.809455 185.809455 0 0 1 256 395.636364z m46.545455 0a139.636364 139.636364 0 0 0 279.272727 0 139.636364 139.636364 0 0 0-279.272727 0z" fill="#31c27c" p-id="9353"></path><path d="M713.053091 521.588364a157.323636 157.323636 0 0 0 72.843636-132.701091 157.602909 157.602909 0 0 0-135.144727-155.950546 19.805091 19.805091 0 0 0-22.388364 19.665455c0 9.728 7.121455 17.92 16.756364 19.316363a118.225455 118.225455 0 0 1 101.399273 116.968728 118.225455 118.225455 0 0 1-100.328728 116.829091 20.829091 20.829091 0 0 0-17.826909 20.573091v0.162909c0 10.658909 7.959273 19.874909 18.571637 20.759272 99.095273 8.354909 179.176727 82.944 195.653818 179.130182 1.652364 9.681455 9.565091 16.989091 19.386182 16.989091h0.209454a19.781818 19.781818 0 0 0 19.316364-23.226182c-15.732364-92.625455-81.408-168.168727-168.448-198.516363" fill="#31c27c" p-id="9354"></path></svg>