<?xml version="1.0" standalone="no"?><!DOCTYPE svg PUBLIC "-//W3C//DTD SVG 1.1//EN" "http://www.w3.org/Graphics/SVG/1.1/DTD/svg11.dtd"><svg t="1568004688430" class="icon" viewBox="0 0 1024 1024" version="1.1" xmlns="http://www.w3.org/2000/svg" p-id="17271" xmlns:xlink="http://www.w3.org/1999/xlink" width="64" height="64"><defs><style type="text/css"></style></defs><path d="M454.5083 1023.996806H340.163697a57.4917 57.4917 0 0 1-57.4917-57.4917V59.413839a57.4917 57.4917 0 0 1 57.4917-57.4917H454.5083a57.4917 57.4917 0 0 1 57.4917 57.4917v907.091267a57.4917 57.4917 0 0 1-57.4917 57.4917z m-107.956637-63.879667H448.120333V65.801806H346.551663zM198.350837 1023.996806H84.006233a57.4917 57.4917 0 0 1-57.4917-57.4917V59.413839a57.4917 57.4917 0 0 1 57.4917-57.4917h114.344604A57.4917 57.4917 0 0 1 256.481333 59.413839v907.091267a57.4917 57.4917 0 0 1-58.130496 57.4917zM90.3942 960.117139H192.601667V65.801806H90.3942z" p-id="17272" fill="#31c27c"></path><path d="M223.902703 234.444126H58.454367a31.939833 31.939833 0 0 1 0-63.879667h165.448336a31.939833 31.939833 0 0 1 0 63.879667zM480.060167 234.444126H314.61183a31.939833 31.939833 0 0 1 0-63.879667H480.060167a31.939833 31.939833 0 0 1 0 63.879667zM831.398333 1023.996806a56.852903 56.852903 0 0 1-55.57531-42.799377L538.82946 104.768403A58.130497 58.130497 0 0 1 579.712447 33.861973l110.511823-31.939834a57.4917 57.4917 0 0 1 70.267633 40.882987l235.077174 875.79023a58.130497 58.130497 0 0 1-40.882987 70.90643L844.174267 1023.996806zM602.07033 93.908859L831.398333 960.117139l98.374687-26.190663L703.639 65.801806z m96.458297-58.769293z" p-id="17273" fill="#31c27c"></path><path d="M767.518667 866.214029a31.939833 31.939833 0 0 1-30.66224-23.635476 31.301037 31.301037 0 0 1 22.357883-38.966597l160.337963-42.799377a31.301037 31.301037 0 0 1 38.966597 22.357884 31.939833 31.939833 0 0 1-22.99668 38.966596l-159.699167 42.799377a19.1639 19.1639 0 0 1-8.304356 1.277593z" p-id="17274" fill="#31c27c"></path></svg>