<?xml version="1.0" standalone="no"?><!DOCTYPE svg PUBLIC "-//W3C//DTD SVG 1.1//EN" "http://www.w3.org/Graphics/SVG/1.1/DTD/svg11.dtd"><svg t="1567999290200" class="icon" viewBox="0 0 1024 1024" version="1.1" xmlns="http://www.w3.org/2000/svg" p-id="8398" xmlns:xlink="http://www.w3.org/1999/xlink" width="64" height="64"><defs><style type="text/css"></style></defs><path d="M663.445224 842.978157c-42.706661 0-97.842399-28.452006-136.574538-52.322669-51.871391-31.965016-107.752096-76.18617-157.354817-124.512828l-0.179079-0.178055-15.745612-15.752776c-48.328705-49.596582-92.546789-105.479333-124.515898-157.353794-23.870664-38.734186-52.322669-93.864808-52.322669-136.572492 0-45.701878 32.679283-94.210685 46.732347-112.942305 10.962679-14.619976 49.266054-62.321394 81.814354-62.321394 13.361309 0 27.754111 8.748245 46.667879 28.366048 16.73208 17.342993 32.784684 38.906102 43.306318 53.93847 14.129812 20.180622 27.194362 41.314964 36.796044 59.505255 15.548114 29.453822 17.346063 42.083467 17.346063 49.02353 0 14.002922-7.314593 26.148543-21.736047 36.096103-9.497305 6.550183-20.894889 11.481496-31.917944 16.252149-7.436366 3.216251-19.306718 8.348132-23.837918 11.961426 1.583055 6.690376 8.488325 22.849404 27.146267 50.248428 17.391089 25.527396 39.879266 53.196573 60.190871 74.055646 20.859074 20.314675 48.524157 42.799782 74.058716 60.193941 27.389814 18.650779 43.548842 25.563212 50.246381 27.14422 3.606131-4.52813 8.742105-16.399505 11.957333-23.834848 4.768607-11.023054 9.698896-22.423709 16.252149-31.921014 9.948583-14.421454 22.094204-21.728884 36.100196-21.728884 6.936993 0 19.565615 1.794879 49.022507 17.339924 18.190291 9.599635 39.325657 22.667256 59.506279 36.797068 15.032368 10.523681 36.589336 26.577309 53.94154 43.302225 19.614733 18.916838 28.359908 33.30964 28.359908 46.671972 0 32.547277-47.695279 70.852698-62.315254 81.814354C757.655909 810.295803 709.147102 842.978157 663.445224 842.978157L663.445224 842.978157 663.445224 842.978157zM396.883169 638.235053c47.583738 46.351678 101.019765 88.658226 150.494573 119.146611 47.961338 29.556153 90.267886 46.511313 116.067482 46.511313 22.981411 0 55.743582-14.036691 87.644129-37.543058 13.986549-10.30674 26.712385-21.783119 35.837206-32.317033 8.566096-9.887184 11.698436-16.338107 12.491499-18.939351-3.311419-7.108908-22.968108-29.344329-68.849064-60.994166-17.998933-12.414751-36.605709-23.825638-52.396347-32.122605-19.825534-10.42442-28.087709-12.222369-29.978778-12.520151-0.735757 0.502443-2.895957 2.307555-6.178723 7.810896-3.672646 6.163373-7.206122 14.329357-10.619872 22.222117-4.203742 9.721409-8.552793 19.771299-13.887288 27.883047-8.671497 13.193487-19.320021 19.883863-31.651884 19.893072-0.221034 0-0.454348-0.00307-0.691755-0.013303-5.999644-0.127913-24.266683-0.514723-73.857125-34.285874-27.374464-18.650779-57.102532-42.831504-79.514985-64.689325l-0.350994-0.345877c-21.85475-22.417569-46.034453-52.143591-64.680115-79.517031-33.777291-49.589418-34.170241-67.854411-34.295084-73.857125-0.26913-12.552897 6.353708-23.387663 19.681248-32.212656 8.15268-5.396917 18.286482-9.777691 28.084639-14.021342 7.896854-3.41068 16.059767-6.946202 22.222117-10.616802 5.503341-3.276626 7.311523-5.441942 7.810896-6.175653-0.297782-1.89107-2.095731-10.152221-12.517081-29.980825-8.300037-15.784498-19.710924-34.395368-32.125675-52.390207-31.651884-45.88505-53.880141-65.543785-60.994166-68.849064-2.601244 0.797156-9.052167 3.926426-18.939351 12.491499-10.536984 9.122775-22.014386 21.85475-32.317033 35.837206-23.508413 31.898501-37.539988 64.660672-37.539988 87.641059 0 25.799596 16.949021 68.104097 46.508243 116.067482 30.487362 49.474808 72.798003 102.910834 119.143541 150.494573L396.883169 638.235053 396.883169 638.235053 396.883169 638.235053zM396.883169 638.235053" p-id="8399" fill="#31c27c"></path><path d="M629.496018 497.986845c-6.821359 0-12.866029-4.889357-14.09195-11.838629-3.5038-19.882839-15.015995-37.152155-32.410154-48.632627-17.643845-11.647271-39.211047-15.969717-60.7322-12.178367-7.794523 1.376347-15.217586-3.827165-16.593933-11.618619-1.373277-7.79043 3.830235-15.217586 11.618619-16.593933 28.766161-5.071506 57.701167 0.781806 81.484849 16.479323 24.033369 15.864316 39.962154 39.8588 44.847417 67.568908 1.373277 7.788383-3.830235 15.217586-11.620665 16.593933C631.156844 497.913167 630.321826 497.986845 629.496018 497.986845L629.496018 497.986845zM629.496018 497.986845" p-id="8400" fill="#31c27c"></path><path d="M715.726961 460.997396c-6.822382 0-12.863982-4.889357-14.092973-11.838629-6.798846-38.579667-29.091572-72.065316-62.763462-94.291526-33.923624-22.388916-75.334779-30.714536-116.608811-23.434735-7.794523 1.376347-15.217586-3.827165-16.593933-11.617595-1.373277-7.788383 3.827165-15.21861 11.621688-16.590863 48.513924-8.559956 97.298 1.292436 137.359414 27.735691 40.311101 26.605961 67.01837 66.816778 75.200726 113.226784 1.373277 7.78736-3.827165 15.217586-11.618619 16.58984C717.390857 460.923718 716.548676 460.997396 715.726961 460.997396L715.726961 460.997396zM715.726961 460.997396" p-id="8401" fill="#31c27c"></path><path d="M830.856072 450.317149c-6.821359 0-12.862959-4.886287-14.087856-11.838629-11.608386-65.835428-49.615001-122.957403-107.018386-160.846338-57.650001-38.051641-127.994116-52.203966-198.061938-39.84652-7.791453 1.373277-15.217586-3.830235-16.593933-11.618619-1.369184-7.79043 3.830235-15.22168 11.617595-16.593933 77.3159-13.633508 155.028842 2.045589 218.818681 44.150546 64.040549 42.268686 106.46273 106.113783 119.450533 179.781596 1.372254 7.788383-3.827165 15.21861-11.618619 16.590863C832.520991 450.246541 831.68188 450.317149 830.856072 450.317149L830.856072 450.317149zM830.856072 450.317149" p-id="8402" fill="#31c27c"></path></svg>