<?xml version="1.0" standalone="no"?><!DOCTYPE svg PUBLIC "-//W3C//DTD SVG 1.1//EN" "http://www.w3.org/Graphics/SVG/1.1/DTD/svg11.dtd"><svg t="1568004780236" class="icon" viewBox="0 0 1024 1024" version="1.1" xmlns="http://www.w3.org/2000/svg" p-id="18900" xmlns:xlink="http://www.w3.org/1999/xlink" width="64" height="64"><defs><style type="text/css"></style></defs><path d="M550.7 614.9v-15.1c4.4-3.9 8.9-7.7 13.4-11.4s9.6-7.7 15.2-11.9c5.6-4.3 11.3-8.4 17.3-12.3 5.9-3.9 12.7-8 20.3-12.1 6.7 9.8 10.1 19.2 10.1 28.1 0 4.9-1 10.3-3.1 16.3s-4.9 12.9-8.5 20.6c-3.6 7.7-8.1 17.4-13.5 29-14.5 32-25.3 58.3-32.4 79.1-7.2 20.8-10.7 34.9-10.7 42.3 0 0.6 0.4 3 1.3 7.2s1.3 7.3 1.3 9.4c0 3.6-1 5.5-3 5.7-2 0.2-4.9-0.5-8.5-2.2-9.4-4.7-15.7-9.1-18.9-13.2-3.2-4.2-4.8-9.6-4.8-16.2 0-11.9 4.3-30.3 13-55.3 4.4-12.6 9.6-25.2 15.4-37.7 5.9-12.5 12.4-25.1 19.6-37.9 7.2-12.8 13.9-24.6 20.3-35.4-14.1 5.8-28.6 13.5-43.8 23zM778.7 577.3c5.8 2.6 9.9 6.8 12.6 12.6 2.6 5.8 3.9 14.4 3.9 25.8 0 17.3-3.5 35.9-10.4 55.8-6.9 20-16.6 38.7-29 56.2-12.4 17.5-26.7 32-42.7 43.3-18 12.7-32.8 19.1-44.3 19.1-8.9 0-17.3-2.7-25.2-8.1-7.8-5.4-14.1-13.1-18.7-23.1-4.7-10-7-21.6-7-35 0-18.6 5.1-38.2 15.3-58.7 10.2-20.5 23.2-39 38.9-55.6 15.7-16.5 32.1-29.3 49.2-38.2 17.1-8.9 31.7-12.1 44-9.4 8.1 1.9 12.5 7 13.4 15.3z m-35.8 22.6c-4.9 2.1-13.6 7.3-19.1 10.8-5.5 3.6-11.8 8.6-19 15.1-7.2 6.5-14.7 14.6-22.5 24.4-12.7 16.3-22.4 32.1-28.8 47.3-6.5 15.2-9.7 28.2-9.7 38.8 0 15.3 5.1 23 15.4 23 5.9 0 14.3-3.2 25.3-9.6 11-6.4 22.6-15.1 34.8-26.3 11.8-10.8 22.1-22.8 31-36.2 8.9-13.3 15.7-26.5 20.4-39.5 4.7-13 7.1-24.1 7.1-33.2 0-5.9-1.3-10.4-3.9-13.7-2.6-3.2-5.8-4.9-9.7-4.9-3.9 0.1-16.4 1.8-21.3 4zM943.5 577.3c5.8 2.6 9.9 6.8 12.6 12.6 2.6 5.8 3.9 14.4 3.9 25.8 0 17.3-3.5 35.9-10.4 55.8-6.9 20-16.6 38.7-29 56.2-12.4 17.5-26.7 32-42.7 43.3-18 12.7-32.8 19.1-44.3 19.1-8.9 0-17.3-2.7-25.2-8.1-7.8-5.4-14.1-13.1-18.7-23.1-4.7-10-7-21.6-7-35 0-18.6 5.1-38.2 15.3-58.7 10.2-20.5 23.2-39 38.9-55.6 15.7-16.5 32.1-29.3 49.2-38.2 17.1-8.9 31.7-12.1 44-9.4 8.1 1.9 12.5 7 13.4 15.3z m-35.9 22.6c-3.7 2.1-13.6 7.3-19.1 10.8-5.5 3.6-11.8 8.6-19 15.1-7.2 6.5-14.7 14.6-22.5 24.4-12.7 16.3-22.4 32.1-28.8 47.3-6.5 15.2-9.7 28.2-9.7 38.8 0 15.3 5.1 23 15.4 23 5.9 0 14.3-3.2 25.3-9.6 11-6.4 22.6-15.1 34.8-26.3 11.8-10.8 22.1-22.8 31-36.2 8.9-13.3 15.7-26.5 20.4-39.5 4.7-13 7.1-24.1 7.1-33.2 0-5.9-1.3-10.4-3.9-13.7-2.6-3.2-5.8-4.9-9.7-4.9-3.8 0.1-17.5 1.8-21.3 4zM609.1 288.1H225.6c-17.6 0-32-14.3-32-32s14.3-32 32-32h383.5c17.6 0 32 14.3 32 32-0.1 17.6-14.4 32-32 32zM609.1 480.1H225.6c-17.6 0-32-14.3-32-32s14.3-32 32-32h383.5c17.6 0 32 14.3 32 32-0.1 17.7-14.4 32-32 32zM417.4 672.1H225.6c-17.6 0-32-14.3-32-32s14.3-32 32-32h191.7c17.6 0 32 14.3 32 32s-14.3 32-31.9 32z" p-id="18901" fill="#31c27c"></path><path d="M159.8 832.2c-17.6 0-31.9-14.3-31.9-32V160c0-17.7 14.3-32 31.9-32h513.7c17.6 0 31.9 14.3 31.9 32v256.1c0 17.7 14.3 32 31.9 32 17.6 0 31.9-14.3 31.9-32V128c0-35.4-28.6-64-63.8-64H127.8C92.6 64 64 92.7 64 128v704.2c0 35.4 28.6 64 63.8 64h353.6c17.6 0 31.9-14.3 31.9-32s-14.3-32-31.9-32H159.8zM952.4 791.8c-9.7 1.6-19.5 3.5-29.2 5.5s-19.4 4-29 6.2c-19.3 4.4-38.4 9.1-57.5 14.4-19 5.1-37.9 10.7-56.7 16.7-18.8 5.9-37.4 12.1-55.8 18.9-18.4 6.7-36.5 14.5-54.3 22.5-17.8 8-35.8 15.6-53.8 22.9-4.5 1.8-9.1 3.5-13.6 5.4-4.5 1.8-9 3.7-13.6 5.5-4.6 1.8-9 3.8-13.6 5.5-4.6 1.8-9.1 3.6-13.7 5.5-2.3 1-4.6 1.8-6.8 2.8l-6.9 2.7c-4.6 1.9-9.1 3.8-13.8 5.6l-7 2.7c-2.3 0.9-4.6 1.9-7 2.8-4.7 1.8-9.4 3.6-14.2 5.2l-1.7-2.7c3.6-3.6 7.2-7.2 11-10.6 1.9-1.7 3.7-3.4 5.6-5.1l5.8-4.9c3.9-3.2 7.9-6.4 11.9-9.5 2-1.5 4.1-3 6.1-4.5 2.1-1.5 4.1-3 6.2-4.4 2.1-1.4 4.1-2.9 6.2-4.3l6.4-4.1c4.2-2.7 8.5-5.4 12.9-8 4.3-2.6 8.8-5 13.1-7.6 4.4-2.5 8.9-4.8 13.4-7.1s9-4.6 13.6-6.7c4.6-2.1 9.2-4.1 13.8-6.1 4.6-2 9.4-3.7 14.1-5.5l7.1-2.6 7.2-2.4c4.8-1.5 9.6-3.1 14.4-4.6l14.5-4.3c4.8-1.5 9.7-2.8 14.5-4.2 4.8-1.4 9.6-2.9 14.5-4.2 19.3-5.6 38.7-10.5 58.2-15.1 19.5-4.4 39.1-8.3 58.8-11.8 19.7-3.4 39.4-6.3 59.2-8.6 19.8-2.3 39.6-4.2 59.6-5l0.1 3.1zM959.3 845.2c-8.1 1.1-16.1 2.4-24.2 3.7-8 1.3-16.1 2.7-24.1 4.2-16 3-32 6.1-47.9 9.7-15.9 3.5-31.7 7.2-47.4 11.3-3.9 1-7.9 2-11.8 3.1l-11.7 3.2c-7.8 2.2-15.6 4.4-23.3 6.8-7.8 2.3-15.4 4.9-23.1 7.5-7.6 2.7-15.2 5.5-22.7 8.4l-45 17.2c-15 5.8-29.9 11.7-44.5 18.3-14.7 6.6-29.2 13.7-43.8 21.3l-1.2-1.6c11.3-12.3 24.4-22.7 38.2-32.1 13.8-9.4 28.5-17.3 43.6-24.4 3.8-1.7 7.5-3.5 11.4-5.1 3.8-1.6 7.7-3.1 11.6-4.6 7.8-2.8 15.6-5.5 23.6-7.9 4-1.1 7.9-2.4 11.9-3.4l12-3.2 12-3c4-1.1 8-2 12-3 8-2 16-3.8 24-5.6l12.1-2.6c4-0.9 8.1-1.6 12.1-2.4 16.1-3.1 32.3-5.8 48.5-8.2 16.2-2.3 32.5-4.4 48.8-6 8.1-0.8 16.3-1.6 24.5-2.2 8.2-0.6 16.3-1.2 24.5-1.5l-0.1 2.1z" p-id="18902" fill="#31c27c"></path></svg>