<?xml version="1.0" standalone="no"?><!DOCTYPE svg PUBLIC "-//W3C//DTD SVG 1.1//EN" "http://www.w3.org/Graphics/SVG/1.1/DTD/svg11.dtd"><svg t="1538477495652" class="icon" style="" viewBox="0 0 1024 1024" version="1.1" xmlns="http://www.w3.org/2000/svg" p-id="41815" xmlns:xlink="http://www.w3.org/1999/xlink" width="32" height="32"><defs><style type="text/css"></style></defs><path d="M882.6 856.6l-182.8-183C809.5 534.5 800.3 332.1 672 203.7c-138.3-138.4-362.6-138.4-500.9 0-138.3 138.4-138.3 362.8 0 501.3 128.6 128.7 331.4 137.7 470.4 27.2l182.7 182.9c16.1 16.1 42.3 16.1 58.4 0 16.2-16.2 16.2-42.3 0-58.5zM226.5 648.4c-107.6-107.7-107.6-282.3 0-390 107.6-107.7 282-107.7 389.6 0s107.6 282.3 0 390c-107.6 107.7-282 107.7-389.6 0z m0 0" fill="#87CEEB" p-id="41816"></path><path d="M853.4 932.4c-12.4 0-24.1-4.8-32.9-13.6L641.1 739.1c-62.9 48.7-140 74.9-219.5 74.9-6.5 0-13-0.2-19.5-0.5-88.6-4.8-171.9-42-234.7-104.8-67.9-68-105.3-158.3-105.3-254.4S99.5 267.9 167.4 200 325.5 94.7 421.5 94.7 607.8 132.1 675.7 200c127.7 127.8 140.7 330.5 31.1 473.2L886.3 853c18.1 18.1 18.1 47.7 0 65.8-8.8 8.8-20.4 13.6-32.9 13.6zM641.9 725.2l186 186.2c6.8 6.8 15.9 10.6 25.5 10.6s18.7-3.8 25.5-10.6c14.1-14.1 14.1-37 0-51.1L692.8 674l2.9-3.6c109.5-138.8 97.7-337.8-27.4-463-65.9-66-153.5-102.3-246.8-102.3s-180.8 36.3-246.7 102.3c-136.1 136.2-136.1 357.7 0 493.9 125.5 125.6 324.7 137.1 463.5 26.8l3.6-2.9z m-220.6 9.2c-75 0-145.5-29.2-198.5-82.3-53-53.1-82.2-123.6-82.2-198.7s29.2-145.6 82.2-198.7c53-53.1 123.5-82.3 198.5-82.3s145.5 29.2 198.5 82.3c53 53.1 82.2 123.6 82.2 198.7S672.8 599 619.8 652.1c-53.1 53.1-123.6 82.3-198.5 82.3z m0-551.5c-72.2 0-140.1 28.1-191.1 79.2-105.4 105.5-105.4 277.1 0 382.6 51 51.1 118.9 79.2 191.1 79.2 72.2 0 140.1-28.1 191.1-79.2 105.4-105.5 105.4-277.1 0-382.6-51.1-51-118.9-79.2-191.1-79.2z" fill="#87CEEB" p-id="41817"></path></svg>